# xmcd
#
# Track frame offsets: 
#        150
#        41887
#        60894
#        80271
#        100213
#        115180
#        138875
#        160034
#        183213
#        210511
#        228983
#        245671
#        261448
#        266923
#
# Disc length: 3937 seconds
#
# Revision: 0
# Processed by: cddbd v1.5.1PL2 Copyright (c) Steve Scherf et al.
# Submitted via: ExactAudioCopy v0.95a5
#
DISCID=ba0f5f0e
DTITLE=Kevin Robinson - Traveling - Songs from 98-99
DYEAR=2005
DGENRE=Blues
TTITLE0=Goin' Down Blues
TTITLE1=Free Your Mind
TTITLE2=Market Place Blues
TTITLE3=Buttercup
TTITLE4=Washington
TTITLE5=No Sweat
TTITLE6=Morning Blues
TTITLE7=You Got to Do
TTITLE8=Live Chess
TTITLE9=Drivin' me Crazy
TTITLE10=Hey My Friend
TTITLE11=Loves Ticket
TTITLE12=A Beer
TTITLE13=Darren and I Take Me Over
EXTD=
EXTT0=
EXTT1=
EXTT2=
EXTT3=
EXTT4=
EXTT5=
EXTT6=
EXTT7=
EXTT8=
EXTT9=
EXTT10=
EXTT11=
EXTT12=
EXTT13=
PLAYORDER=
